<svg version="1.1" id="Layer_1" xmlns="http://www.w3.org/2000/svg" xmlns:xlink="http://www.w3.org/1999/xlink" x="0px" y="0px"
	 width="100%" viewBox="0 0 1277 852" enable-background="new 0 0 1277 852" xml:space="preserve">
<path fill="#FCD905" opacity="1.000000" stroke="none" 
	d="
M1273.000000,853.000000 
	C851.633911,853.000000 430.267883,853.000000 8.500456,852.601318 
	C7.047282,852.083496 5.995460,851.964478 4.758034,851.476074 
	C4.378508,849.496521 4.015366,847.886414 4.014884,846.276184 
	C3.987717,755.505249 3.989899,664.734253 3.997708,573.963318 
	C3.997851,572.301270 4.100926,570.639282 4.607161,568.983398 
	C6.224918,568.992065 7.391488,568.996765 8.558058,568.996765 
	C430.684784,568.999817 852.811523,569.002563 1275.056885,568.995483 
	C1275.175659,568.985596 1275.413696,568.987488 1275.339600,569.450684 
	C1275.250977,660.786743 1275.237305,751.659607 1275.216919,842.532410 
	C1275.216431,844.694092 1275.139160,846.855835 1274.781250,849.124268 
	C1274.313477,850.090881 1274.162109,850.950745 1273.684204,851.914795 
	C1273.238403,852.346069 1273.119263,852.673035 1273.000000,853.000000 
z"/>
<path fill="#241E20" opacity="1.000000" stroke="none" 
	d="
M4.000000,1.000000 
	C427.366058,1.000000 850.732117,1.000000 1274.548584,1.276356 
	C1275.076050,1.720196 1275.152832,1.887679 1275.196411,2.519291 
	C1275.174561,74.306168 1275.178589,145.628906 1275.201294,216.951660 
	C1275.208130,238.280533 1275.267090,259.609406 1275.194336,281.222351 
	C1275.169800,281.691162 1275.252808,281.875916 1275.293945,282.370605 
	C1275.267090,283.096344 1275.282227,283.512115 1275.109863,284.105591 
	C1274.862427,284.444763 1274.802856,284.606293 1274.569092,284.738342 
	C1274.394897,284.708801 1274.046509,284.766541 1273.869873,284.709229 
	C1273.693237,284.651886 1273.322021,284.666901 1272.956787,284.443054 
	C1270.430908,284.150330 1268.270386,284.021027 1266.109863,284.020966 
	C849.293335,284.012146 432.476776,284.012390 15.660218,284.013641 
	C11.827207,284.013672 7.994195,284.031677 4.065714,283.783203 
	C3.917030,283.349548 3.863816,283.174011 3.895064,282.536682 
	C3.986509,191.835464 3.998427,101.596001 3.958284,11.356557 
	C3.957613,9.847968 3.324562,8.339662 2.989307,6.455434 
	C3.328006,4.386430 3.664003,2.693215 4.000000,1.000000 
z"/>
<path fill="#FAFFFE" opacity="1.000000" stroke="none" 
	d="
M4.155974,568.977234 
	C4.100926,570.639282 3.997851,572.301270 3.997708,573.963318 
	C3.989899,664.734253 3.987717,755.505249 4.014884,846.276184 
	C4.015366,847.886414 4.378508,849.496521 4.399689,851.546509 
	C3.498999,851.953674 2.771050,851.921082 2.021928,851.572449 
	C1.945770,850.840027 1.890786,850.423706 1.914837,849.644836 
	C1.662590,848.854858 1.331307,848.427429 1.000012,848.000000 
	C1.000000,752.979126 1.000000,657.958191 1.451375,562.409302 
	C1.935430,560.050293 1.996604,558.219421 1.996702,556.388489 
	C2.001387,468.596649 1.999684,380.804779 2.007854,293.012939 
	C2.008039,291.018066 2.113407,289.023224 2.425838,287.350616 
	C2.788094,289.655548 2.986714,291.638184 2.987057,293.620880 
	C3.002405,382.315948 2.994700,471.010986 3.034674,559.706055 
	C3.035616,561.796814 3.548268,563.887390 3.893274,566.349487 
	C4.028195,567.473083 4.092085,568.225159 4.155974,568.977234 
z"/>
<path fill="#FEFEFF" opacity="1.000000" stroke="none" 
	d="
M1275.097656,849.017517 
	C1275.139160,846.855835 1275.216431,844.694092 1275.216919,842.532410 
	C1275.237305,751.659607 1275.250977,660.786743 1275.576172,569.462891 
	C1276.203247,569.011780 1276.519409,569.021362 1277.134766,569.270386 
	C1277.622925,569.333496 1277.811401,569.166748 1278.000000,569.000000 
	C1278.000000,662.020874 1278.000000,755.041809 1277.649658,848.442139 
	C1277.532959,849.214355 1277.766479,849.607178 1278.000000,850.000000 
	C1277.666626,851.000000 1277.333374,852.000000 1276.762939,852.724243 
	C1276.380371,852.240295 1276.234863,852.032043 1276.086182,851.505005 
	C1275.754395,850.463318 1275.426025,849.740417 1275.097656,849.017517 
z"/>
<path fill="#FEFEFF" opacity="1.000000" stroke="none" 
	d="
M1275.297485,283.927887 
	C1275.282227,283.512115 1275.267090,283.096344 1275.474365,282.278351 
	C1275.565186,281.563507 1275.433594,281.250885 1275.302002,280.938293 
	C1275.267090,259.609406 1275.208130,238.280533 1275.201294,216.951660 
	C1275.178589,145.628906 1275.174561,74.306168 1275.509399,2.487610 
	C1275.903564,1.661199 1275.951782,1.330598 1276.000000,1.000013 
	C1276.666626,1.331824 1277.784058,1.544749 1277.909180,2.019383 
	C1278.196411,3.108452 1278.000000,4.325135 1278.000000,5.490008 
	C1278.000000,98.014236 1278.000000,190.538452 1277.692017,283.481689 
	C1276.968994,283.924469 1276.554077,283.948212 1275.929932,283.926208 
	C1275.720947,283.880432 1275.297485,283.927887 1275.297485,283.927887 
z"/>
<path fill="#FEFEFF" opacity="1.000000" stroke="none" 
	d="
M2.986604,6.831223 
	C3.324562,8.339662 3.957613,9.847968 3.958284,11.356557 
	C3.998427,101.596001 3.986509,191.835464 3.622577,282.536377 
	C2.902331,283.001434 2.539033,283.004974 2.088648,282.647095 
	C1.667705,281.857086 1.333851,281.428528 0.999998,281.000000 
	C1.000000,189.979111 1.000000,98.958206 1.281790,7.760279 
	C2.037922,7.332570 2.512263,7.081897 2.986604,6.831223 
z"/>
<path fill="#F9FFF1" opacity="1.000000" stroke="none" 
	d="
M1276.139038,283.971985 
	C1276.554077,283.948212 1276.968994,283.924469 1277.692017,283.950378 
	C1278.000000,285.388885 1278.000000,286.777802 1277.550049,288.646484 
	C1277.069458,290.791199 1277.012451,292.456146 1277.012329,294.121094 
	C1277.008667,383.766144 1277.010864,473.411163 1277.003052,563.056213 
	C1277.002930,565.051025 1276.893677,567.045776 1276.835205,569.040588 
	C1276.519409,569.021362 1276.203247,569.011780 1275.650146,568.999634 
	C1275.413696,568.987488 1275.175659,568.985596 1275.145020,568.538452 
	C1275.126709,480.382263 1275.141113,392.673218 1275.145996,304.964172 
	C1275.146362,299.640320 1275.071289,294.316498 1275.320312,288.752319 
	C1275.785889,286.998688 1275.962402,285.485321 1276.139038,283.971985 
z"/>
<path fill="#080004" opacity="1.000000" stroke="none" 
	d="
M1277.134766,569.270386 
	C1276.893677,567.045776 1277.002930,565.051025 1277.003052,563.056213 
	C1277.010864,473.411163 1277.008667,383.766144 1277.012329,294.121094 
	C1277.012451,292.456146 1277.069458,290.791199 1277.550049,289.063110 
	C1278.000000,382.020905 1278.000000,475.041779 1278.000000,568.531372 
	C1277.811401,569.166748 1277.622925,569.333496 1277.134766,569.270386 
z"/>
<path fill="#170711" opacity="1.000000" stroke="none" 
	d="
M2.169711,287.028351 
	C2.113407,289.023224 2.008039,291.018066 2.007854,293.012939 
	C1.999684,380.804779 2.001387,468.596649 1.996702,556.388489 
	C1.996604,558.219421 1.935430,560.050293 1.451375,561.940613 
	C1.000000,469.979095 1.000000,377.958221 1.210745,285.470795 
	C1.421491,285.004272 1.842998,285.006317 1.923975,285.339844 
	C2.059872,286.125031 2.114791,286.576691 2.169711,287.028351 
z"/>
<path fill="#0E0F13" opacity="1.000000" stroke="none" 
	d="
M2.989307,6.455434 
	C2.512263,7.081897 2.037922,7.332570 1.281790,7.291622 
	C1.000000,5.333333 0.868022,3.648644 1.091449,2.012488 
	C1.148339,1.595886 2.333333,1.333333 3.500000,1.000000 
	C3.664003,2.693215 3.328006,4.386430 2.989307,6.455434 
z"/>
<path fill="#080004" opacity="1.000000" stroke="none" 
	d="
M2.043103,851.888550 
	C2.771050,851.921082 3.498999,851.953674 4.585293,851.915894 
	C5.995460,851.964478 7.047282,852.083496 8.049551,852.601318 
	C6.285642,853.000000 4.571283,853.000000 2.431741,852.721802 
	C2.018740,852.258545 2.030922,852.073486 2.043103,851.888550 
z"/>
<path fill="#0E0F13" opacity="1.000000" stroke="none" 
	d="
M1.842997,285.006317 
	C1.842998,285.006317 1.421491,285.004272 1.210745,285.002136 
	C1.000000,283.933319 1.000000,282.866669 0.999998,281.399994 
	C1.333851,281.428528 1.667705,281.857086 2.016749,282.977417 
	C1.968958,284.114929 1.905977,284.560638 1.842997,285.006317 
z"/>
<path fill="#000000" opacity="1.000000" stroke="none" 
	d="
M2.021929,851.572388 
	C2.030922,852.073486 2.018740,852.258545 2.003283,852.721802 
	C1.666673,852.333008 1.333340,851.666016 1.208969,850.499695 
	C1.417931,850.000366 1.835804,850.007385 1.835803,850.007385 
	C1.890786,850.423706 1.945770,850.840027 2.021929,851.572388 
z"/>
<path fill="#080004" opacity="1.000000" stroke="none" 
	d="
M1276.089478,851.823730 
	C1276.234863,852.032043 1276.380371,852.240295 1276.262939,852.724243 
	C1275.250000,853.000000 1274.500000,853.000000 1273.375000,853.000000 
	C1273.119263,852.673035 1273.238403,852.346069 1274.027832,851.989380 
	C1275.161865,851.914368 1275.625610,851.869019 1276.089478,851.823730 
z"/>
<path fill="#170711" opacity="1.000000" stroke="none" 
	d="
M1.914838,849.644836 
	C1.835804,850.007385 1.417931,850.000366 1.208966,850.000183 
	C1.000000,849.555542 1.000000,849.111084 1.000012,848.333313 
	C1.331307,848.427429 1.662590,848.854858 1.914838,849.644836 
z"/>
<path fill="#C0C0C0" opacity="1.000000" stroke="none" 
	d="
M1275.750000,0.999999 
	C1275.951782,1.330598 1275.903564,1.661199 1275.542480,2.023481 
	C1275.152832,1.887679 1275.076050,1.720196 1274.999512,1.276356 
	C1275.000000,1.000000 1275.500000,1.000000 1275.750000,0.999999 
z"/>
<path fill="#080004" opacity="1.000000" stroke="none" 
	d="
M1278.000000,849.750000 
	C1277.766479,849.607178 1277.532959,849.214355 1277.649658,848.910767 
	C1278.000000,849.000000 1278.000000,849.500000 1278.000000,849.750000 
z"/>
<path fill="#F02A29" opacity="1.000000" stroke="none" 
	d="
M1275.031250,288.992615 
	C1275.071289,294.316498 1275.146362,299.640320 1275.145996,304.964172 
	C1275.141113,392.673218 1275.126709,480.382263 1275.026367,568.548340 
	C852.811523,569.002563 430.684784,568.999817 8.558058,568.996765 
	C7.391488,568.996765 6.224918,568.992065 4.607162,568.983398 
	C4.092085,568.225159 4.028195,567.473083 3.968421,565.887573 
	C3.980529,473.352509 3.987914,381.650787 4.002481,289.949097 
	C4.002692,288.622467 4.092517,287.295837 4.504881,285.801453 
	C7.491275,285.424255 10.113295,285.031525 12.735340,285.031342 
	C430.442383,285.004242 848.149414,285.005981 1265.856445,284.991425 
	C1268.344971,284.991333 1270.833496,284.779724 1273.322021,284.666901 
	C1273.322021,284.666901 1273.693237,284.651886 1273.858765,285.033386 
	C1274.068359,285.625366 1274.112305,285.835815 1274.118042,286.389771 
	C1274.396973,287.486389 1274.714111,288.239502 1275.031250,288.992615 
z"/>
<path fill="#FFF5AE" opacity="1.000000" stroke="none" 
	d="
M1276.086182,851.505005 
	C1275.625610,851.869019 1275.161865,851.914368 1274.354492,851.885132 
	C1274.162109,850.950745 1274.313477,850.090881 1274.781250,849.124268 
	C1275.426025,849.740417 1275.754395,850.463318 1276.086182,851.505005 
z"/>
<path fill="#974D4A" opacity="1.000000" stroke="none" 
	d="
M1272.956787,284.443054 
	C1270.833496,284.779724 1268.344971,284.991333 1265.856445,284.991425 
	C848.149414,285.005981 430.442383,285.004242 12.735340,285.031342 
	C10.113295,285.031525 7.491275,285.424255 4.445732,285.481384 
	C4.068542,284.899811 4.114864,284.470551 4.161185,284.041260 
	C7.994195,284.031677 11.827207,284.013672 15.660218,284.013641 
	C432.476776,284.012390 849.293335,284.012146 1266.109863,284.020966 
	C1268.270386,284.021027 1270.430908,284.150330 1272.956787,284.443054 
z"/>
<path fill="#F9FFF1" opacity="1.000000" stroke="none" 
	d="
M4.065715,283.783203 
	C4.114864,284.470551 4.068542,284.899811 4.081369,285.649170 
	C4.092517,287.295837 4.002692,288.622467 4.002481,289.949097 
	C3.987914,381.650787 3.980529,473.352509 3.897389,565.516113 
	C3.548268,563.887390 3.035616,561.796814 3.034674,559.706055 
	C2.994700,471.010986 3.002405,382.315948 2.987057,293.620880 
	C2.986714,291.638184 2.788094,289.655548 2.425838,287.350616 
	C2.114791,286.576691 2.059872,286.125031 1.923974,285.339844 
	C1.905977,284.560638 1.968958,284.114929 2.103837,283.338898 
	C2.539033,283.004974 2.902331,283.001434 3.538116,282.998169 
	C3.863816,283.174011 3.917030,283.349548 4.065715,283.783203 
z"/>
<path fill="#F3C6C0" opacity="1.000000" stroke="none" 
	d="
M1275.320312,288.752319 
	C1274.714111,288.239502 1274.396973,287.486389 1274.370117,286.272461 
	C1274.687988,285.463715 1274.715576,285.115784 1274.743164,284.767853 
	C1274.802856,284.606293 1274.862427,284.444763 1275.109863,284.105591 
	C1275.297485,283.927887 1275.720947,283.880432 1275.929932,283.926208 
	C1275.962402,285.485321 1275.785889,286.998688 1275.320312,288.752319 
z"/>
<path fill="#974D4A" opacity="1.000000" stroke="none" 
	d="
M1274.568970,284.738342 
	C1274.715576,285.115784 1274.687988,285.463715 1274.408325,285.928955 
	C1274.112305,285.835815 1274.068359,285.625366 1274.035400,285.090729 
	C1274.046509,284.766541 1274.394897,284.708801 1274.568970,284.738342 
z"/>
<path fill="#C0C0C0" opacity="1.000000" stroke="none" 
	d="
M1275.194336,281.222351 
	C1275.433594,281.250885 1275.565186,281.563507 1275.516235,281.968384 
	C1275.252808,281.875916 1275.169800,281.691162 1275.194336,281.222351 
z"/>
</svg>